<svg xmlns="http://www.w3.org/2000/svg" viewBox="0 0 400 200">
  <g id="Ebene_2" data-name="Ebene 2">
    <g id="Ebene_1-2" data-name="Ebene 1">
      <g>
        <rect width="400" height="200" style="fill: #fff"/>
        <g>
          <path d="M374.57,179.19H53.79a1.5,1.5,0,1,1,0-3H374.57a1.5,1.5,0,0,1,0,3Z" style="fill: #666"/>
          <path d="M42.17,176.63a1.49,1.49,0,0,1,0,2.12,1.5,1.5,0,0,1-2.12,0L33.27,172l-6.78,6.78a1.49,1.49,0,0,1-1.06.44,1.5,1.5,0,0,1-1.06-2.56l6.78-6.78-6.78-6.78a1.51,1.51,0,0,1,0-2.12,1.49,1.49,0,0,1,2.12,0l6.78,6.78L40.05,161a1.5,1.5,0,0,1,2.12,2.12l-6.78,6.78Z" style="fill: #666"/>
        </g>
        <path d="M344.32,41.64l-8.21-8.2a4.3,4.3,0,0,0-6.09-.27l-7.36,7.35-3.6-3.59a1.78,1.78,0,0,0-2.54,0L292.16,61.28a1.79,1.79,0,0,0,0,2.55,1.81,1.81,0,0,0,2.55,0l23.08-23.08,2.32,2.32L269.34,93.84a1.83,1.83,0,0,0-.45.76l-5.15,17.17A1.81,1.81,0,0,0,266,114l17.17-5.15a1.85,1.85,0,0,0,.76-.45l60.67-60.67h0A4.33,4.33,0,0,0,344.32,41.64ZM291.94,95.29l-9.48-9.47,40.2-40.2,9.48,9.47Zm-9.3,9.3-9.47-9.48,6.75-6.75,9.47,9.48Zm-11.16-6.07,7.75,7.76-11.07,3.32ZM342,45.19l-7.36,7.36-9.47-9.48,7.36-7.36c.21-.2.74,0,1,.27l8.22,8.21C342.15,44.57,342.19,45,342,45.19Z" style="fill: #ccc"/>
        <path d="M257.38,120.18c-2.84-5.49-9.5-8.35-15.34-9.11a19,19,0,0,0-9.14.81,13.07,13.07,0,0,0-3.77,2.15,23.88,23.88,0,0,1-5.28,3.36c-8.52,3.85-18.71,3-27.75,2.15-6.16-.58-12.35-1.4-18.54-1.58a27.16,27.16,0,0,0-35.89-9.6c-7.75,4.26-13.17,11.45-19.4,17.5-5.23,5.07-11.71,9.72-19.16,9.71a16.85,16.85,0,0,0,3.68-6.87,33.39,33.39,0,0,0,.23-13.1c-.55-3.75-2.15-7.63-5.93-9.1s-8.27.15-10.86,3.16c-5.18,6-5.43,16.45-.62,22.76a14.86,14.86,0,0,0,6.46,4.82c-6,3.15-13.35,3.58-19.92,3a26.07,26.07,0,0,1-11.88-3.5,17.56,17.56,0,0,1-7.13-9.25c-2.54-7.36-1.38-15.65,2.15-22.49A31.24,31.24,0,0,1,75.82,90a29.69,29.69,0,0,1,22.28.89A27.39,27.39,0,0,1,107,97.3c1.31,1.42,3.43-.71,2.12-2.13C98.28,83.38,79.21,82.08,66.59,91.73a35.64,35.64,0,0,0-12.72,19.14c-2,7.62-1.45,16.57,3.23,23.15,5.11,7.18,13.89,9.28,22.26,9.42,7,.13,14.82-.92,20.69-5.14a22.38,22.38,0,0,0,10.56-1c8.46-2.93,14.51-10,20.51-16.27,5.75-6,12.45-12.19,21.17-12.87a25,25,0,0,1,19.56,7.26,22.86,22.86,0,0,1,2.14,2.53c-1.91,0-3.82.13-5.72.34-7.87.85-15.74,3.24-21.86,8.45-3,2.57-6.32,6.24-5.62,10.53.63,3.89,4.32,6.69,7.73,8.15,14.21,6.13,37.31-7.07,30.71-24,0-.13-.1-.26-.16-.39,9.28.44,18.72,2.11,27.64,2.2a52.09,52.09,0,0,0,13.74-1.45,29.9,29.9,0,0,0,6-2.27,32.13,32.13,0,0,0,4.92-3.4c4.81-3.67,12.45-2.41,17.44.16a13.26,13.26,0,0,1,6,5.48C255.67,123.41,258.26,121.9,257.38,120.18Zm-158.1,15a12.46,12.46,0,0,1-7.83-5.3,16,16,0,0,1-2-11.19c.67-3.89,2.63-8.28,6.75-9.43a5.63,5.63,0,0,1,5.24.93,8.36,8.36,0,0,1,2.39,4.65,29.36,29.36,0,0,1,.11,12.89A14.16,14.16,0,0,1,99.28,135.14Zm73,2.53c-5.57,5.2-14.2,8-21.58,5.38-3.38-1.19-8.15-4.36-6.71-8.55a13.2,13.2,0,0,1,3.87-5.05,27.29,27.29,0,0,1,4.81-3.46c7.24-4.13,15.1-5.22,23.15-5.11a15.38,15.38,0,0,1,1.6,5.51C177.76,130.85,175.42,134.71,172.25,137.67Z" style="fill: #ccc"/>
      </g>
    </g>
  </g>
</svg>
